<?xml version="1.0" standalone="no"?>
<!DOCTYPE svg PUBLIC "-//W3C//DTD SVG 20010904//EN"
 "http://www.w3.org/TR/2001/REC-SVG-20010904/DTD/svg10.dtd">
<svg version="1.0" xmlns="http://www.w3.org/2000/svg"
 width="1364.000000pt" height="828.000000pt" viewBox="0 0 1364.000000 828.000000"
 preserveAspectRatio="xMidYMid meet">

<g transform="translate(0.000000,828.000000) scale(0.100000,-0.100000)"
fill="#000000" stroke="none">
<path d="M6625 6530 c-453 -48 -856 -221 -1190 -510 -324 -281 -568 -684 -663
-1095 -57 -247 -56 -209 -57 -1735 l0 -1405 2105 0 2105 0 0 1395 c0 1492 0
1486 -51 1716 -169 762 -760 1375 -1519 1574 -207 54 -535 81 -730 60z m535
-71 c820 -140 1471 -748 1660 -1550 50 -214 50 -198 50 -1686 l0 -1393 -2050
0 -2050 0 0 1393 c0 1505 -1 1474 54 1703 150 621 595 1145 1189 1398 183 78
402 134 609 156 131 14 396 4 538 -21z"/>
<path d="M6576 6389 c-463 -60 -901 -288 -1217 -634 -281 -309 -459 -712 -499
-1130 -6 -70 -10 -586 -10 -1407 l0 -1298 1970 0 1970 0 0 1298 c0 854 -4
1336 -11 1408 -37 380 -175 723 -414 1029 -101 130 -298 312 -437 406 -269
180 -561 289 -878 329 -99 12 -375 11 -474 -1z m380 -79 c71 -6 183 -22 250
-35 690 -139 1258 -679 1434 -1362 45 -173 60 -314 60 -564 l0 -219 -340 0
-340 0 0 -345 0 -345 340 0 340 0 0 -720 0 -720 -1880 0 -1880 0 0 720 0 720
340 0 340 0 0 345 0 345 -340 0 -340 0 0 219 c0 139 6 263 15 335 52 396 223
753 499 1043 355 373 796 567 1342 592 17 0 89 -4 160 -9z m-1756 -2275 c0
-23 -4 -25 -45 -25 -33 0 -45 -4 -45 -15 0 -10 11 -15 35 -15 31 0 35 -3 35
-25 0 -22 -4 -25 -35 -25 -24 0 -35 -5 -35 -15 0 -11 12 -15 45 -15 41 0 45
-2 45 -25 0 -24 -2 -25 -75 -25 l-75 0 0 105 0 105 75 0 c73 0 75 -1 75 -25z
m247 1 l28 -25 -25 -9 c-15 -6 -29 -6 -34 -1 -13 12 -46 12 -46 0 0 -5 15 -13
33 -16 43 -10 67 -32 67 -64 0 -32 -8 -44 -37 -60 -52 -27 -132 1 -133 47 0
14 56 17 65 2 8 -13 45 -13 45 0 0 5 -18 14 -40 20 -52 14 -78 50 -61 86 21
47 94 58 138 20z m2855 -3 c31 -28 23 -77 -19 -117 l-38 -36 41 0 c39 0 41 -2
36 -25 -4 -24 -7 -25 -88 -25 -82 0 -84 1 -84 24 0 17 14 35 50 62 50 38 65
58 54 75 -8 14 -34 11 -40 -6 -7 -17 -50 -20 -59 -5 -9 15 21 59 48 70 29 12
76 4 99 -17z m211 0 c43 -40 42 -148 -3 -188 -32 -29 -88 -25 -116 9 -19 22
-24 39 -24 84 0 62 17 97 54 112 26 11 65 4 89 -17z m-229 -274 c29 -14 47
-55 36 -85 -5 -11 -22 -33 -40 -47 l-32 -27 36 0 c39 0 50 -11 41 -40 -6 -18
-15 -20 -91 -20 l-84 0 0 30 c0 17 4 30 9 30 15 0 101 81 101 95 0 25 -23 29
-41 6 -13 -16 -24 -20 -43 -15 -33 8 -33 19 3 55 31 31 64 36 105 18z m236
-54 c0 -51 3 -65 15 -65 9 0 15 -9 15 -25 0 -16 -6 -25 -15 -25 -9 0 -15 -9
-15 -25 0 -21 -5 -25 -30 -25 -25 0 -30 4 -30 25 0 23 -3 25 -50 25 -45 0 -50
2 -50 23 0 12 20 53 45 90 42 61 48 67 80 67 l35 0 0 -65z m-3340 -15 c0 -13
-7 -20 -20 -20 -18 0 -20 -7 -20 -80 l0 -80 -30 0 -30 0 0 76 c0 67 -2 76 -20
81 -11 3 -20 14 -20 24 0 17 8 19 70 19 63 0 70 -2 70 -20z m242 9 c27 -14 51
-74 43 -109 -11 -48 -48 -73 -115 -78 l-60 -4 0 101 0 101 56 0 c30 0 64 -5
76 -11z"/>
<path d="M6936 5914 c-26 -75 -44 -140 -39 -144 4 -5 21 -10 37 -12 27 -3 29
0 62 91 18 51 35 96 39 99 3 3 5 -42 5 -101 0 -58 3 -108 8 -110 4 -3 28 -8
53 -12 l45 -7 43 94 42 93 -6 -101 c-6 -110 -4 -114 49 -114 22 0 23 4 34 142
6 79 9 144 7 146 -2 2 -28 9 -59 16 -65 16 -60 20 -107 -88 l-34 -80 -5 99
c-6 110 1 101 -91 119 l-36 6 -47 -136z"/>
<path d="M6330 5976 c-63 -19 -74 -25 -72 -42 5 -24 73 -258 77 -262 2 -2 19
1 39 8 l35 11 -14 47 c-8 25 -13 47 -11 49 1 2 26 -14 54 -36 49 -36 54 -38
92 -28 22 6 40 14 40 17 0 3 -25 23 -55 44 l-55 40 25 26 c44 46 29 111 -30
136 -41 17 -33 18 -125 -10z m100 -71 c0 -15 -37 -35 -66 -35 -25 0 -15 28 14
38 39 15 52 14 52 -3z"/>
<path d="M5942 5794 c-75 -50 -82 -56 -71 -75 18 -35 140 -218 147 -223 4 -2
46 21 93 52 l87 57 -22 32 -22 32 -52 -35 c-49 -32 -72 -37 -72 -13 0 5 23 23
50 40 28 17 50 35 50 40 0 5 -7 21 -16 34 l-16 24 -55 -35 c-50 -32 -73 -36
-73 -14 0 4 23 22 50 40 28 18 50 36 50 41 0 13 -31 59 -39 58 -3 0 -43 -25
-89 -55z"/>
<path d="M7547 5799 c-18 -19 -52 -67 -77 -108 l-44 -74 23 -18 c30 -24 48
-24 56 0 11 36 31 44 59 25 l26 -16 -21 -35 c-23 -37 -23 -37 24 -64 22 -12
22 -12 92 102 26 44 48 90 48 104 0 51 -52 101 -117 112 -31 5 -40 1 -69 -28z
m84 -59 c20 -11 26 -45 10 -55 -13 -7 -61 16 -61 30 0 10 19 35 28 35 2 0 12
-5 23 -10z"/>
<path d="M7879 5534 c-35 -32 -83 -75 -107 -96 l-44 -40 23 -24 c29 -31 36
-30 77 9 l35 32 -7 -35 c-19 -93 -19 -97 5 -129 12 -17 26 -31 30 -31 4 0 13
29 20 65 12 59 15 65 33 58 65 -23 126 17 126 82 0 27 -12 48 -56 99 -30 36
-59 66 -63 66 -5 0 -37 -25 -72 -56z m88 -76 c26 -24 30 -48 9 -48 -18 0 -58
49 -50 61 8 13 15 11 41 -13z"/>
<path d="M5594 5485 c-36 -37 -64 -71 -62 -75 4 -12 210 -190 219 -190 4 0 17
13 28 29 l21 29 -33 25 c-28 22 -30 28 -19 44 51 74 53 79 48 112 -7 48 -44
81 -95 88 -42 6 -44 5 -107 -62z m123 -31 c3 -10 -4 -26 -21 -42 -24 -25 -27
-25 -43 -9 -16 16 -15 18 7 42 27 29 48 32 57 9z"/>
<path d="M5381 5179 c-6 -18 -11 -34 -11 -35 0 -2 43 -24 95 -48 95 -45 106
-57 82 -90 -12 -16 -19 -14 -109 28 -102 47 -110 47 -122 -4 -6 -24 0 -28 104
-74 100 -44 112 -48 139 -36 35 14 54 41 72 98 20 67 5 85 -105 136 -135 63
-132 62 -145 25z"/>
<path d="M8096 5154 c-66 -29 -121 -56 -123 -58 -5 -4 25 -66 31 -66 3 0 26 9
52 20 26 11 48 19 50 17 2 -2 -13 -29 -32 -61 -32 -54 -34 -62 -23 -90 7 -17
15 -35 19 -39 4 -4 26 23 49 62 23 38 45 72 49 74 4 3 42 -2 85 -10 44 -8 81
-12 83 -10 3 2 -3 20 -12 40 -16 33 -20 35 -93 48 l-76 13 50 23 c28 12 54 24
58 25 15 6 -15 68 -31 67 -10 0 -71 -25 -136 -55z"/>
<path d="M7541 4979 c-125 -32 -193 -85 -246 -190 -39 -77 -53 -147 -75 -384
-18 -199 -46 -404 -56 -414 -2 -2 -61 1 -131 7 -353 32 -863 -96 -828 -208 4
-14 12 -19 23 -16 55 17 320 78 392 91 176 31 392 15 492 -36 49 -25 136 -105
161 -148 l18 -31 -63 34 c-214 118 -658 112 -883 -12 -38 -21 -53 -35 -62 -63
-22 -69 16 -154 91 -203 77 -50 160 -42 197 18 36 59 20 127 -49 199 -31 32
-33 37 -17 38 11 0 58 4 105 8 94 8 289 -2 380 -20 l59 -11 -6 -44 c-12 -91
56 -187 151 -214 88 -24 156 21 156 104 0 24 9 64 20 89 51 116 24 318 -51
371 -18 12 -20 21 -15 63 3 26 13 172 21 323 9 151 20 293 26 315 28 111 70
174 141 209 62 31 83 32 123 6 41 -27 70 -25 94 6 46 58 11 135 -60 133 -19 0
-67 -9 -108 -20z m-1070 -1412 c47 -36 49 -107 3 -107 -37 0 -60 15 -73 49
-23 54 24 93 70 58z m767 -3 c31 -21 45 -60 32 -85 -24 -44 -110 -4 -110 51 0
48 36 64 78 34z"/>
<path d="M5252 4767 c-19 -24 -34 -89 -28 -120 9 -46 33 -67 77 -67 33 0 43 6
80 50 23 28 48 50 56 50 16 0 17 -28 2 -67 -8 -23 -7 -30 7 -40 29 -21 41 -15
58 27 24 60 21 106 -9 135 -47 48 -98 29 -161 -60 -36 -51 -54 -16 -29 61 5
15 0 23 -19 32 -18 8 -27 8 -34 -1z"/>
<path d="M8363 4763 c-19 -4 -23 -11 -23 -43 l0 -38 -87 -11 c-140 -19 -135
-17 -128 -54 4 -18 9 -34 11 -36 2 -3 44 1 93 7 132 18 131 18 131 -23 0 -33
2 -35 34 -35 19 0 37 3 39 8 7 14 -28 226 -38 227 -5 1 -20 0 -32 -2z"/>
<path d="M6195 4730 c-123 -18 -207 -56 -249 -113 -17 -23 -21 -43 -21 -95 1
-82 30 -148 116 -261 56 -75 259 -285 267 -276 2 2 -12 31 -32 65 -20 33 -36
62 -36 63 0 10 181 89 193 84 8 -3 37 -45 65 -94 29 -48 52 -86 52 -83 0 4
-13 49 -30 100 -16 52 -30 98 -30 101 0 6 118 39 139 39 5 0 19 -28 30 -62 24
-71 45 -109 37 -68 -3 14 -8 51 -11 82 l-6 57 33 5 c18 3 55 7 82 8 49 3 50 2
60 -32 l10 -35 4 38 3 37 82 1 82 1 -80 26 c-45 15 -86 30 -92 34 -6 4 -13 25
-17 47 -3 22 -9 46 -12 55 -5 14 8 16 107 17 127 1 116 12 -24 24 -47 3 -90
12 -95 18 -10 13 -54 139 -49 142 1 1 85 -2 186 -6 102 -5 186 -7 188 -6 5 5
-459 77 -562 87 -115 11 -316 11 -390 0z m517 -140 c21 -36 38 -71 38 -77 0
-9 -22 -13 -79 -13 l-79 0 -46 74 c-25 40 -46 77 -46 80 0 4 39 5 87 4 l88 -3
37 -65z m-259 -17 c31 -42 54 -80 50 -84 -5 -4 -37 -10 -73 -14 l-65 -7 -58
84 -58 83 28 6 c15 4 48 7 73 8 46 1 46 1 103 -76z m-258 -53 c38 -38 67 -71
64 -74 -7 -6 -145 -46 -161 -46 -16 0 -28 45 -28 103 0 27 33 87 48 87 4 0 39
-31 77 -70z m611 -117 l23 -53 -88 0 -88 0 -12 38 c-7 20 -13 42 -14 47 -2 11
68 23 122 21 31 -1 36 -6 57 -53z m-227 -23 c25 -44 27 -41 -49 -60 -25 -6
-53 -14 -63 -16 -13 -4 -22 6 -38 41 -11 26 -19 48 -17 50 8 8 76 23 109 24
31 1 38 -4 58 -39z m-220 -55 l32 -45 -23 -9 c-13 -5 -58 -23 -102 -40 -43
-18 -79 -30 -81 -29 -11 17 -55 102 -55 109 0 9 145 58 176 59 13 0 32 -16 53
-45z"/>
<path d="M6423 2570 c-24 -11 -43 -14 -45 -9 -6 18 -48 -31 -48 -56 0 -14 2
-25 5 -25 3 0 33 14 66 31 34 17 63 28 66 26 7 -8 -26 -67 -61 -112 -44 -54
-47 -61 -40 -79 10 -27 32 -18 66 28 56 72 128 149 135 143 3 -4 -17 -38 -46
-77 -49 -68 -62 -102 -41 -115 6 -3 46 31 90 77 77 79 79 81 50 34 -33 -55
-38 -97 -15 -116 13 -11 24 -7 65 18 l49 30 14 -21 15 -22 30 23 c38 27 41 27
35 3 -3 -10 0 -22 6 -26 15 -8 75 29 94 59 9 13 25 26 36 29 20 5 20 4 5 -25
-28 -55 7 -79 53 -36 l24 22 6 -22 c7 -27 12 -27 29 -4 12 16 14 16 36 -5 31
-29 40 -29 77 2 l30 26 3 -23 c4 -31 28 -33 68 -6 44 30 53 55 11 31 -16 -10
-33 -14 -37 -10 -13 13 24 77 45 77 24 0 40 26 34 51 -6 23 -26 24 -43 4 -7
-8 -18 -15 -25 -15 -6 0 -20 -9 -30 -20 -17 -19 -17 -20 1 -20 15 0 8 -11 -29
-46 -44 -42 -67 -51 -73 -28 -2 5 11 18 29 29 34 22 43 58 16 63 -9 2 -40 -16
-70 -40 l-54 -42 42 49 c22 28 57 66 77 84 34 33 47 61 27 61 -16 0 -111 -92
-143 -139 -37 -53 -60 -73 -71 -61 -10 9 9 50 23 50 6 0 10 9 10 19 0 14 -9
20 -37 24 -31 4 -42 1 -61 -20 -12 -13 -20 -29 -16 -34 6 -10 -32 -49 -48 -49
-11 0 -10 24 2 36 19 19 22 64 6 70 -20 8 -110 -37 -164 -81 -24 -19 -48 -35
-53 -35 -23 0 -5 54 39 110 70 91 67 87 53 104 -15 18 -16 17 -110 -63 l-52
-44 26 49 c22 42 24 50 11 62 -16 16 -23 13 -94 -44 l-32 -27 6 32 c4 19 2 37
-6 46 -15 18 -15 18 -67 -5z m383 -175 c-43 -38 -56 -43 -56 -20 0 14 63 54
85 54 6 0 -8 -15 -29 -34z m340 9 c-15 -14 -31 -22 -35 -19 -7 7 39 45 54 44
6 0 -3 -11 -19 -25z"/>
<path d="M5240 2400 c0 -7 157 -10 450 -10 293 0 450 3 450 10 0 7 -157 10
-450 10 -293 0 -450 -3 -450 -10z"/>
<path d="M7500 2400 c0 -7 157 -10 450 -10 293 0 450 3 450 10 0 7 -157 10
-450 10 -293 0 -450 -3 -450 -10z"/>
<path d="M8441 3991 c-6 -11 -11 -34 -11 -51 0 -17 5 -40 11 -51 17 -33 39 -5
39 51 0 56 -22 84 -39 51z"/>
<path d="M8436 3675 c-21 -31 -20 -35 4 -35 16 0 20 7 20 30 0 36 -3 37 -24 5z"/>
<path d="M5350 3615 c0 -56 12 -69 38 -43 25 25 7 98 -23 98 -11 0 -15 -13
-15 -55z"/>
</g>
</svg>
